<?xml version="1.0" encoding="utf-8"?>
<!-- Generator: Adobe Illustrator 22.1.0, SVG Export Plug-In . SVG Version: 6.00 Build 0)  -->
<svg version="1.1" id="Layer_1" xmlns="http://www.w3.org/2000/svg" xmlns:xlink="http://www.w3.org/1999/xlink" x="0px" y="0px"
	 viewBox="0 0 480 205" style="enable-background:new 0 0 480 205;" xml:space="preserve">
<style type="text/css">
	.st0{fill:#333132;}
</style>
<title>winnie-bs-vintage-logo</title>
<g>
	<path class="st0" d="M153.6,7.9c0.2-0.8-0.4-1.6-1.2-1.8c-0.6-0.2-1.2-0.1-1.8,0.2l-0.1,0.1c-0.6,0.4-0.9,1.1-0.9,1.8
		c0,0.3,0,0.5-0.1,0.8l-0.4,2.2c-0.1,0.7-0.2,1.4-0.3,2.1c-0.1,0.7-0.3,1.4-0.4,2.2c-0.3,1.5-0.6,2.9-0.8,4.4
		c-0.3,1.5-0.6,2.9-0.9,4.4c-1.1,5.6-2.3,11.5-3.7,17.4c-0.7,2.8-1.4,5.6-2.2,8.4s-1.7,5.4-2.7,8.1c-0.4,1.2-1,2.4-1.5,3.6
		c-0.6,1.1-1.2,2.2-2,3.2c-0.3,0.4-0.6,0.7-1,1c-0.4,0.3-0.8,0.6-1.3,0.9c-0.3,0.2-0.7,0.2-1.1,0.2c-0.3-0.1-0.7-0.2-0.9-0.5
		c-0.4-0.4-0.7-0.9-0.9-1.5c-0.2-0.6-0.4-1.2-0.6-1.8c-0.1-0.6-0.2-1.3-0.3-2c-0.1-0.7-0.1-1.4-0.2-2c-0.1-1.4-0.3-2.8-0.4-4.3
		c-0.2-2.2-0.4-4.5-0.4-6.6s-0.1-4.5-0.1-6.7c0-3,0.1-6.1,0.2-9c0.2-3,0.3-6.1,0.3-9.2c0-0.7,0-1.4-0.1-2.1
		c-0.1-0.7-0.2-1.4-0.3-2.1c-0.1-0.4-0.2-0.9-0.3-1.3c-0.2-0.7-0.6-1.3-1.2-1.7c-0.9-0.6-2.1-0.6-3,0c-0.7,0.5-1.2,1.1-1.6,1.9
		c-0.4,0.7-0.7,1.4-0.9,2.2c-0.3,1-0.4,1.3-0.4,1.4c-0.3,1.1-0.4,2.2-0.6,3.3c-0.1,1-0.2,2.1-0.2,3.2c-0.1,1.5-0.2,3-0.3,4.4
		c0,1.5-0.1,2.9-0.2,4.4c0,1.2,0,2.5,0.1,3.7c0,1.2,0.1,2.4,0.2,3.6c-0.2,1.5-0.5,3.1-0.7,4.6s-0.5,3.1-0.8,4.7
		c-0.3,1.3-0.5,2.6-0.8,3.9c-0.3,1.3-0.6,2.6-0.9,3.9c-0.3,1.3-0.7,2.5-1.1,3.8c-0.4,1.2-0.9,2.3-1.6,3.4c-0.2,0.3-0.4,0.5-0.6,0.8
		c-0.3,0.3-0.6,0.6-0.9,0.9c-0.2,0.2-0.5,0.3-0.8,0.3l-0.1-0.2c-0.4-0.4-0.6-1-0.8-1.5c-0.2-0.7-0.3-1.4-0.5-2
		c-0.1-0.6-0.2-1.2-0.3-1.8c-0.1-0.6-0.1-1.2-0.2-1.8c-0.3-2.8-0.5-5.5-0.7-8.3c-0.2-2.7-0.3-5.6-0.5-8.3c-0.1-2.8-0.3-5.7-0.5-8.5
		c-0.2-2.8-0.5-5.7-1-8.5c-0.2-1.4-0.5-2.8-0.8-4.2c-0.3-1.4-0.7-2.8-1.2-4.2c-0.1-0.4-0.3-0.9-0.5-1.5c-0.2-0.7-0.6-1.5-1.1-2.1
		c-0.5-0.7-1.1-1.3-1.9-1.7c-0.9-0.5-2-0.6-3.1-0.4c-0.8,0.1-1.5,0.4-2.2,0.8c-0.6,0.4-1.1,0.8-1.5,1.3c-0.4,0.4-0.8,0.9-1.2,1.5
		c-0.3,0.5-0.6,0.9-0.8,1.3c-0.7,1.4-1.4,2.8-1.9,4.2c-0.5,1.4-0.9,2.8-1.3,4.2s-0.6,2.8-0.9,4.1c-0.2,1.4-0.4,2.7-0.6,4.1
		c-0.2,1.4-0.3,2.7-0.4,4v0.1c0,0.2,0,0.4-0.1,0.6c-0.2,0.7,0.2,1.5,0.8,1.8c0.5,0.4,1.2,0.5,1.9,0.3c0.7-0.2,1.3-0.8,1.4-1.5
		c0.2-0.7,0.2-1.3,0.2-2c0-0.5,0-1,0-1.5c0-0.6,0.1-1.2,0.2-1.8c0.1-0.6,0.2-1.2,0.3-1.9c0.4-2.7,1-5.4,1.7-8
		c0.4-1.2,0.9-2.5,1.4-3.7c0.5-1.2,1.3-2.3,2.3-3.1c0.3-0.2,0.5-0.5,0.8-0.7c0.1-0.1,0.2-0.1,0.2-0.1c0,0,0,0,0,0.1l0.2,0.7
		c0,0.2,0.1,0.3,0.1,0.5c0.2,1.2,0.3,2.4,0.3,3.7c0,1.3,0,2.6,0,4s0,2.8,0,4.3c0,1.5,0,2.8,0,4.2c0,2.8,0.1,5.7,0.2,8.5
		s0.4,5.7,0.8,8.5c0.3,2.7,0.8,5.4,1.4,8.1c0.6,2.8,1.7,5.5,3.3,8c0.3,0.6,0.6,1.1,1,1.6c0.5,0.6,1,1.1,1.6,1.6
		c0.6,0.5,1.3,0.8,2,1.1c0.5,0.2,0.9,0.2,1.4,0.2c0.4,0,0.9-0.1,1.3-0.2c0.8-0.2,1.5-0.5,2.1-1c0.6-0.4,1.1-0.9,1.5-1.5
		c0.3-0.5,0.7-1,0.9-1.6c0.3-0.5,0.5-1,0.7-1.5c1.1-2.6,2-5.3,2.7-8c0.3-1.5,0.7-3,1-4.4c0.1,0.5,0.2,1,0.4,1.4
		c0.4,1.3,0.8,2.6,1.4,3.9c0.5,1.4,1.2,2.7,1.9,3.9c0.8,1.5,2,2.8,3.4,3.8c0.8,0.6,1.7,0.9,2.6,1c0.8,0.1,1.7,0,2.5-0.2
		c0.8-0.2,1.5-0.6,2.2-1c0.6-0.4,1.2-0.9,1.7-1.4c1-1.1,1.9-2.3,2.6-3.6c0.6-1.2,1.3-2.5,1.8-3.8c1.1-2.6,2.1-5.4,2.9-8.1
		c0.8-2.8,1.5-5.7,2.2-8.5c1.5-6,2.9-11.9,4-17.5C151.4,19.7,152.6,13.7,153.6,7.9z"/>
	<path class="st0" d="M156.6,13.2c0.7,0.4,1.6,0.6,2.4,0.6c0.3,0,0.6,0,0.9-0.1c1.2-0.1,2.2-0.6,3-1.5c0.7-0.7,0.9-1.7,0.8-2.7
		c-0.2-1-0.8-1.8-1.7-2.3c-1-0.6-2.2-0.8-3.4-0.6c-1.2,0.1-2.3,0.6-3,1.5c-0.6,0.7-0.9,1.7-0.7,2.7
		C155.1,11.9,155.7,12.7,156.6,13.2z"/>
	<path class="st0" d="M252,7.5L252,7.5c1.2,0.1,2.3-0.3,3.2-1.1c0.8-0.6,1.2-1.6,1.3-2.6c0-1-0.4-2-1.1-2.7c-0.9-0.8-2-1.2-3.2-1.2
		c-1.2-0.1-2.4,0.3-3.3,1.1c-0.8,0.7-1.2,1.6-1.3,2.6c0,1,0.4,1.9,1.1,2.6C249.7,7.2,250.8,7.6,252,7.5z"/>
	<path class="st0" d="M284.8,38.1c-0.8-0.5-1.8-0.3-2.5,0.4c-0.3,0.3-0.6,0.7-0.8,1.1c-0.6,0.8-1.2,1.7-1.8,2.5
		c-0.6,0.8-1.3,1.6-2,2.3c-1,1-2.1,1.9-3.2,2.8c-1.2,0.9-2.5,1.7-3.8,2.3c-1.3,0.6-2.7,1.1-4.2,1.3c-1.4,0.2-2.8,0.2-4.1-0.2
		c-0.5-0.1-1-0.3-1.3-0.7c-0.3-0.3-0.6-0.7-0.8-1.1c-0.2-0.4-0.3-0.9-0.3-1.4c0-0.6,0-1.1,0-1.7c0.1-1.1,0.3-2.2,0.6-3.3
		c0.1-0.5,0.3-1,0.5-1.5c0.6,0.5,1.3,0.9,2.1,1.2c1.4,0.6,2.9,0.9,4.5,0.9l0,0c1.6,0.1,3.1-0.2,4.6-0.8c1.4-0.5,2.7-1.2,3.9-2.1
		c1.2-0.9,2.3-1.9,3.2-3c0.9-1.1,1.6-2.3,2.2-3.5c0.6-1.2,0.9-2.6,0.9-3.9c0-1.4-0.3-2.7-0.9-3.9c-0.6-1.3-1.6-2.3-2.8-3.1
		c-1.4-0.9-3-1.4-4.6-1.4c-1.8-0.1-3.6,0.1-5.3,0.6c-1.7,0.5-3.3,1.2-4.8,2.1c-1.5,0.9-2.8,1.9-4.1,3.1c-1.1,1.1-2.1,2.2-3.1,3.4
		c-0.9,1.3-1.8,2.7-2.4,4.2c-0.4,0.9-0.7,1.7-1,2.6l0,0c-0.7,0.9-1.4,1.8-2,2.7c-0.7,0.9-1.4,1.9-2.1,2.8s-1.5,1.8-2.3,2.6
		s-1.4,1.5-2.2,2.2c-0.7,0.7-1.5,1.3-2.4,1.9c-0.2,0.1-0.4,0.2-0.7,0.3c-0.3,0.1-0.6,0.2-0.9,0.2c-0.2,0-0.3,0-0.5,0l0-0.1
		c-0.1-0.2-0.1-0.5-0.1-0.8c0.1-0.5,0.2-1,0.3-1.5c0.1-0.5,0.2-1,0.3-1.5c0.1-0.5,0.3-1.1,0.4-1.5c0.6-2,1.2-4,1.8-6
		c0.9-2.9,1.8-5.7,2.7-8.5c0.3-0.8,0.5-1.5,0.7-2.2c0.2-0.8,0.4-1.4,0.7-2.1l0-0.1c0.1-0.2,0.1-0.5,0.2-0.7c0.1-0.3,0.2-0.7,0.3-1
		c0.1-0.4,0.1-0.9,0.1-1.4c-0.1-0.6-0.4-1.1-0.8-1.5c-0.8-0.9-2-1.1-3.1-0.7c-0.8,0.4-1.5,0.9-2,1.6c-0.5,0.6-1,1.3-1.4,2.1
		c-0.3,0.7-0.6,1.1-0.7,1.4c-1.6,2.8-3,5.7-4.1,8.8c-0.3,0.9-0.6,1.7-0.9,2.6c-0.2,0.2-0.3,0.4-0.4,0.6c-0.1,0.2-0.2,0.3-0.3,0.5
		l-0.1,0.1c-0.3,0.6-0.6,1.2-1,1.8s-0.7,1.1-1.1,1.7c-0.8,1.2-1.6,2.3-2.5,3.5c-0.8,1.1-1.8,2-3,2.9c-0.7,0.5-1.4,0.9-2.2,1.2
		c-0.6,0.3-1.4,0.3-2,0.1h-0.1c0-0.1,0-0.1,0-0.2c0-0.2,0-0.4,0.1-0.6l0.3-0.8c0.2-0.6,0.4-1.3,0.7-1.9l0.8-2
		c0.6-1.4,1.2-2.8,1.9-4.2c0.6-1.4,1.3-2.9,1.9-4.4c0.5-1.4,0.9-2.7,1.4-4.1c0.5-1.4,0.7-2.9,0.7-4.5c0-0.8,0-1.5-0.2-2.3
		c-0.2-0.9-0.7-1.8-1.4-2.4c-0.7-0.6-1.7-1-2.6-1.1c-0.9-0.1-1.8,0.1-2.7,0.4c-0.9,0.3-1.8,0.8-2.6,1.4c-0.7,0.5-1.4,1.1-2,1.6
		c-0.7,0.6-1.2,1-1.8,1.6c-0.6,0.5-1.1,1.1-1.7,1.7c-1.1,1.3-2.1,2.6-3.1,3.8c-0.8,1.1-1.5,2.2-2.2,3.3c0.9-2.8,1.9-5.7,2.8-8.5
		c0.1-0.4,0.3-0.8,0.4-1.3c0.2-0.6,0.3-1.2,0.3-1.8c0-0.6-0.3-1.3-0.7-1.8c-0.6-0.6-1.3-1.1-2.2-1.2c-0.8-0.2-1.7-0.2-2.6,0
		c-0.7,0.2-1.3,0.7-1.7,1.3c-0.4,0.5-0.6,1.1-0.8,1.6c-0.2,0.5-0.3,1-0.4,1.4c-1.1,4.5-2.1,9-3.1,13.5c-0.2,0.2-0.4,0.4-0.4,0.7
		c-0.1,0.2-0.1,0.3-0.2,0.5l-0.1,0.1c-0.3,0.6-0.5,1.2-0.8,1.8c-0.3,0.6-0.6,1.2-0.9,1.7c-0.6,1.2-1.4,2.3-2.2,3.5
		c-0.7,1.1-1.6,2.1-2.7,2.9c-0.6,0.5-1.3,1-2.1,1.3c-0.6,0.3-1.4,0.4-2,0.2h-0.1c0-0.1,0-0.1,0-0.2c0-0.2,0-0.4,0-0.6
		c0.1-0.3,0.1-0.5,0.2-0.8c0.1-0.6,0.3-1.3,0.5-1.9l0.6-2c0.5-1.4,0.9-2.8,1.5-4.1s1-2.9,1.5-4.3c0.4-1.3,0.7-2.7,1-4.1
		c0.3-1.4,0.4-2.9,0.3-4.4c0-0.8-0.2-1.5-0.4-2.3c-0.3-0.9-0.9-1.7-1.6-2.3c-0.8-0.6-1.7-0.9-2.7-0.9H191c-0.9,0-1.7,0.2-2.6,0.5
		c-0.9,0.4-1.7,0.9-2.4,1.5c-0.6,0.5-1.3,1.1-1.9,1.7c-0.6,0.6-1.1,1.1-1.6,1.6s-1,1.1-1.5,1.7c-1,1.3-1.9,2.6-2.7,3.9
		c-0.7,1.1-1.4,2.2-2,3.4c0.7-2.8,1.3-5.7,2.1-8.6c0.1-0.4,0.2-0.8,0.3-1.3c0.2-0.6,0.2-1.2,0.1-1.8c-0.1-0.6-0.4-1.2-0.8-1.7
		c-0.6-0.6-1.4-1-2.3-1c-0.9-0.2-1.7-0.1-2.6,0.2c-0.7,0.3-1.2,0.7-1.6,1.3c-0.3,0.5-0.6,1.1-0.7,1.7c-0.1,0.5-0.2,1-0.3,1.4
		c-0.7,4.4-1.3,8.8-1.8,13.3c-0.1,0.1-0.1,0.2-0.2,0.3c-0.5,0.9-0.9,1.8-1.4,2.8c-0.5,0.9-0.9,1.9-1.5,2.8s-1.1,1.8-1.6,2.7
		c-0.5,0.8-1.1,1.5-1.7,2.3c-0.6,0.7-1.2,1.4-1.9,2c-0.2,0.1-0.4,0.2-0.6,0.3c-0.3,0.1-0.5,0.2-0.8,0.3c-0.1,0-0.3,0.1-0.4,0.1
		c-0.1,0-0.2,0-0.2,0l-0.1-0.1c-0.1-0.2-0.2-0.4-0.2-0.6c0-0.5-0.1-1-0.1-1.4s0-0.9,0-1.4s0-1,0.1-1.5c0.1-1.9,0.3-3.8,0.4-5.7
		c0.2-2.7,0.5-5.5,0.7-8.2c0.1-0.7,0.2-1.5,0.2-2.2c0-0.7,0.1-1.3,0.2-2v-0.1c0-0.2,0-0.4,0-0.7c0-0.3,0.1-0.7,0.1-1
		c0-0.4-0.1-0.9-0.2-1.3c-0.2-0.5-0.6-0.9-1.1-1.2c-0.9-0.7-2.1-0.7-3.1-0.2c-0.7,0.4-1.3,1.1-1.7,1.8c-0.4,0.7-0.7,1.4-0.9,2.1
		c-0.2,0.7-0.3,1.1-0.4,1.4c-0.9,2.8-1.6,5.7-2.1,8.6c-0.5,2.9-0.5,5.9,0,8.8c0.2,1.3,0.6,2.6,1.1,3.8c0.5,1.5,1.5,2.8,2.8,3.7
		c0.6,0.5,1.3,0.9,2.1,1.1c0.4,0.1,0.9,0.2,1.4,0.2c0.3,0,0.5,0,0.8-0.1c0.7-0.1,1.3-0.3,2-0.6c0.6-0.3,1.1-0.6,1.7-1
		c1.3-0.9,2.4-1.9,3.4-3.1c0.8-0.9,1.5-1.8,2.1-2.8c-0.1,1.2-0.3,2.4-0.4,3.6c-0.1,0.8,0.2,1.6,0.8,2c0.5,0.4,1.1,0.6,1.7,0.6h0.1
		c0.6,0,1.1-0.1,1.6-0.4c0.7-0.3,1.1-1,1.2-1.7l0.1-0.4c0.1-0.4,0.3-0.9,0.5-1.3c0.2-0.5,0.4-1,0.6-1.5c0.4-1.2,0.9-2.4,1.3-3.5
		c0.5-1.1,1-2.3,1.5-3.5c1.1-2.3,2.3-4.6,3.5-6.8c1.3-2.3,2.8-4.5,4.4-6.6c0.3-0.4,0.7-0.9,1.1-1.4c0.4-0.5,0.8-0.9,1.3-1.3
		c0.4-0.4,0.9-0.7,1.4-1c0.3-0.2,0.7-0.3,1.1-0.4c-0.1,0.4-0.3,0.9-0.5,1.3c-0.3,0.6-0.5,1.1-0.7,1.7c-0.7,1.7-1.4,3.5-2,5.1
		c-0.7,1.7-1.2,3.5-1.6,5.3c-0.3,1.4-0.6,2.8-0.8,4.2c-0.2,1.5-0.2,3,0.1,4.4c0.1,0.7,0.3,1.4,0.6,2c0.3,0.7,0.7,1.4,1.2,1.9
		c0.5,0.6,1.2,1.1,2,1.4c0.9,0.4,1.8,0.5,2.7,0.4c1-0.1,2.1-0.3,3-0.8c0.9-0.4,1.7-0.9,2.5-1.5c1.3-1,2.4-2.1,3.4-3.3l0.4-0.5
		c-0.2,1-0.4,2.1-0.6,3.1c-0.2,0.8,0.1,1.6,0.6,2.1c0.5,0.4,1,0.7,1.6,0.7h0.3c0.5,0,1-0.1,1.5-0.3c0.7-0.3,1.2-0.9,1.3-1.6l0.1-0.4
		c0.2-0.5,0.4-0.9,0.6-1.3c0.3-0.5,0.5-1,0.8-1.5c0.5-1.2,1.1-2.4,1.7-3.5s1.2-2.3,1.9-3.5c1.3-2.3,2.7-4.6,4.2-6.8
		c1.5-2.3,3.2-4.5,5-6.5c0.4-0.4,0.8-0.9,1.2-1.3c0.4-0.5,0.9-0.9,1.4-1.3c0.5-0.4,1-0.7,1.5-1c0.3-0.2,0.7-0.3,1-0.4
		c-0.2,0.5-0.4,0.9-0.6,1.3c-0.3,0.6-0.6,1.1-0.9,1.7c-0.8,1.7-1.7,3.5-2.5,5.2c-0.8,1.7-1.5,3.5-2.1,5.3c-0.5,1.4-0.9,2.8-1.2,4.2
		c-0.3,1.5-0.4,3-0.3,4.5c0,0.7,0.2,1.4,0.4,2.1c0.2,0.7,0.6,1.4,1,2.1c0.5,0.6,1.1,1.2,1.8,1.5c0.8,0.4,1.7,0.6,2.6,0.6h0.1
		c1.1,0,2.1-0.2,3.1-0.6c0.9-0.4,1.8-0.9,2.6-1.4c1.3-0.9,2.6-2,3.7-3.2c0.8-0.9,1.5-1.8,2.2-2.7c0,0.7,0.1,1.4,0.1,2.2
		c0.1,1.6,0.8,3.1,1.8,4.4c0.5,0.6,1.1,1.1,1.8,1.5c0.6,0.3,1.3,0.5,2,0.5h0.1c0.7,0,1.4-0.1,2.1-0.4c0.6-0.2,1.3-0.5,1.9-0.8
		c1.4-0.8,2.8-1.7,4-2.8c1.2-1,2.3-2.2,3.4-3.3c0.7-0.8,1.3-1.5,1.9-2.3c0.2,1.6,0.7,3.1,1.4,4.5c0.7,1.3,1.7,2.5,3,3.4
		c1.3,1,2.9,1.6,4.6,1.7c0.6,0,1.2,0.1,1.9,0.1c0.9,0,1.9-0.1,2.8-0.2c1.6-0.2,3.1-0.6,4.6-1.1c1.5-0.5,3-1.3,4.4-2.1
		c1.3-0.8,2.5-1.8,3.7-2.8c1.1-1,2.2-2.1,3.1-3.3c1-1.2,1.9-2.4,2.7-3.6c0.2-0.3,0.4-0.5,0.5-0.8c0.2-0.4,0.3-0.9,0.2-1.3
		C285.5,38.6,285.2,38.3,284.8,38.1z M274.3,25.1c0.8-0.1,1.7,0.2,2.4,0.7c0.5,0.4,0.7,1,0.6,1.7c-0.1,0.6-0.3,1.2-0.5,1.7
		c-0.3,0.7-0.7,1.3-1,2s-0.7,1.2-1.1,1.8c-0.4,0.6-0.8,1.2-1.2,1.7c-0.9,1.1-1.9,2-3,2.8c-1.1,0.8-2.4,1.2-3.8,1.3
		c-0.9,0.1-1.8-0.1-2.7-0.6c-0.5-0.3-0.9-0.7-1.3-1.1c1.4-2.7,3-5.2,4.9-7.5L269,28c0.5-0.5,1-1,1.5-1.4c0.6-0.4,1.2-0.8,1.8-1.1
		C272.9,25.2,273.5,25.1,274.3,25.1L274.3,25.1z"/>
	<path class="st0" d="M366.3,30.9c1.1-2,1.8-4.1,2.2-6.4c0.4-2.2,0.3-4.5-0.3-6.7c-1-3.4-3.1-6.4-6-8.5c-3.1-2.2-6.6-3.8-10.3-4.7
		c-4-1-8.1-1.6-12.3-1.7c-4.2-0.2-8.4,0.2-12.5,1.1c-2,0.4-3.9,1-5.8,1.8c-1.8,0.7-3.5,1.7-5,2.8c-1.5,1.1-2.8,2.4-3.9,3.8
		c-1.1,1.4-1.8,3.1-2.2,4.9c-0.3,1.7-0.3,3.4,0.2,5c0.4,1.6,1.2,3,2.3,4.2c1.1,1.3,2.5,2.3,4,3.1c1.7,0.9,3.5,1.4,5.3,1.7
		c0.7,0.1,1.4-0.2,1.8-0.7c0.5-0.6,0.5-1.5-0.1-2.1c-0.4-0.4-0.9-0.7-1.5-0.7c-0.2,0-0.5,0-0.7-0.1c-0.2-0.1-0.5-0.1-0.8-0.1
		c-0.2,0-0.6-0.1-0.8-0.2c-0.9-0.2-1.7-0.6-2.5-1c-0.8-0.4-1.5-0.9-2.1-1.5c-1.2-1.1-2-2.6-2.3-4.2c-0.3-1.6,0-3.2,0.6-4.7
		c0.7-1.7,1.9-3.2,3.3-4.3c1.6-1.3,3.3-2.3,5.2-3.1c2.1-0.8,4.2-1.4,6.4-1.8c2.2-0.4,4.5-0.6,6.8-0.6h0.6c1.7,0,3.5,0.1,5.2,0.2
		c1.9,0.2,3.8,0.5,5.7,0.9c1.8,0.4,3.5,1,5.2,1.7c1.5,0.7,3,1.6,4.3,2.7c2.2,1.8,3.7,4.4,4,7.3c0.2,2.9-0.3,5.8-1.6,8.4
		c-1.5,2.9-3.4,5.5-5.7,7.7c-2.4,2.4-5.1,4.3-8.2,5.7c-3.1,1.4-6.4,2.2-9.7,2.4c-1.9,0.1-3.8,0-5.7-0.3l-0.5-0.1l-1.3-0.6l-0.2,0.6
		c-0.5,0.2-0.9,0.6-1,1.1c-0.1,0.4-0.1,0.8,0,1.2c0.2,0.5,0.7,0.8,1.2,1c0.5,0.2,1,0.3,1.5,0.3c0.3,0,0.6,0,0.8,0.1h0.1
		c0.6,0.1,1.3,0.3,1.9,0.6c0.6,0.3,1.2,0.6,1.7,1c0.5,0.3,1,0.7,1.3,1.2c0.4,0.4,0.6,1,0.6,1.5c0,0.6,0,1.2-0.2,1.7
		c-0.2,0.6-0.5,1.3-0.9,1.8c-0.4,0.6-0.9,1.2-1.4,1.8c-1,1.1-2.1,2-3.4,2.7c-1.2,0.8-2.6,1.4-3.9,1.9c-1.4,0.5-2.8,0.8-4.2,1
		c-1.4,0.2-2.8,0.2-4.3,0c-1.5-0.2-3-0.5-4.5-0.9c-1.4-0.4-2.7-1-4-1.8c-1.2-0.7-2.3-1.6-3.2-2.7c-0.9-1-1.5-2.1-1.9-3.4
		c-0.3-1.3-0.4-2.6-0.3-3.8c0.1-1.2,0.6-2.4,1.5-3.3c0.2-0.2,0.4-0.4,0.6-0.6c0.7-0.6,0.9-1.6,0.3-2.3c-0.3-0.6-1-0.9-1.7-0.8
		c-0.3,0.1-0.7,0.2-1,0.3l-0.2,0.1l-0.2,0.2c-1.1,1.3-1.9,2.8-2.3,4.5c-0.4,1.6-0.5,3.4-0.1,5c0.3,1.6,0.9,3.1,1.8,4.5
		c0.9,1.4,2,2.7,3.2,3.8c1.3,1.1,2.7,2,4.2,2.8c1.4,0.7,2.8,1.3,4.2,1.8c1.5,0.5,3,0.9,4.6,1.2c1.6,0.3,3.1,0.5,4.7,0.6
		c0.4,0,0.7,0,1.1,0c1.2,0,2.5-0.1,3.7-0.3c1.7-0.3,3.4-0.8,5-1.5c1.6-0.7,3.2-1.7,4.5-2.8c1.3-1.1,2.5-2.5,3.3-4
		c0.9-1.5,1.3-3.3,1.2-5.1c0-2.2-1-4.3-2.7-5.7c-0.4-0.3-0.7-0.6-1.1-0.8c2.4-0.2,4.7-0.5,7-1c3.9-0.9,7.7-2.4,11.1-4.5
		c2.1-1.3,4-2.8,5.7-4.6C363.8,34.8,365.2,32.9,366.3,30.9z"/>
	<path class="st0" d="M313.6,58c0.1,0,0.2,0,0.3,0c0.5,0,0.9-0.1,1.3-0.4c0.4-0.2,0.8-0.6,1.1-0.9c0.3-0.3,0.5-0.6,0.8-0.9
		c0.2-0.3,0.4-0.5,0.6-0.8c1-1.2,2-2.5,3-3.8c1-1.3,1.9-2.6,2.8-3.9l4.6-6.6c1.5-2.2,3-4.4,4.6-6.8c1.9-2.9,3.8-5.8,5.6-8.6
		c1.9-2.9,3.7-6,5.2-9.1c0.5-1,0.2-2.2-0.6-2.9c-0.6-0.6-1.4-0.9-2.2-0.8c-0.2,0-0.4,0-0.7,0.1c-1.1,0.2-2,0.8-2.7,1.7l-1.4,1.7
		c-1,1.2-2.1,2.5-3,3.7c-1,1.2-1.9,2.5-2.9,3.8c-2,2.8-4,5.6-5.9,8.5s-3.8,5.7-5.6,8.6c-1.2,2.1-2.4,4.2-3.6,6.3
		c-1.2,2.1-2.2,4.3-3.1,6.5c-0.1,0.3-0.2,0.6-0.4,1c-0.1,0.4-0.2,0.9-0.3,1.3c0,0.6,0.1,1.1,0.5,1.6C312.3,57.7,312.9,58,313.6,58z"
		/>
	<path class="st0" d="M367.1,30.3c-0.3,1-0.3,2,0.2,2.9c0.3,0.6,0.9,1.2,1.5,1.5c-0.2,0.2-0.4,0.5-0.6,0.7c-0.5,0.5-1.1,1-1.8,1.3
		l-0.2,0.1h-0.1c-0.5,0.1-1,0.3-1.4,0.8c-0.4,0.4-0.5,1.1-0.3,1.6c0.2,0.7,0.8,1.1,1.5,1.1h0.1h0.1c1.5-0.2,2.8-0.8,4.1-1.6l0.1,0
		c0.9-0.7,1.6-1.4,2.4-2.2c0.7-0.8,1.4-1.7,1.9-2.6l0.1-0.2c0.1-0.1,0.1-0.2,0.2-0.3c0.6-0.9,0.9-2.1,0.6-3.2
		c-0.2-0.9-0.9-2.1-3.1-2.6c-1.2-0.3-2.4-0.1-3.5,0.6C368.1,28.5,367.4,29.3,367.1,30.3z"/>
	<path class="st0" d="M383.8,46.9c-0.1-1-0.3-1.9-0.4-2.9c-0.1-1-0.3-2-0.5-2.9c-0.1-0.5-0.2-1.1-0.4-1.7c-0.1-0.6-0.2-1.1-0.3-1.7
		c-0.1-0.5-0.1-1,0-1.5c0.1-0.4,0.2-0.8,0.5-1.1c0.5-0.6,0.5-1.5,0.1-2.2c-0.4-0.6-1.2-0.9-1.9-0.8h-0.1c-0.6,0.1-1.2,0.4-1.8,0.7
		c-1.2,0.7-2.2,1.7-2.8,2.9l-2.2,2.6c-2.4,2.9-4.9,5.7-7.2,8.6c-0.4,0.5-0.9,1-1.3,1.5c-0.4,0.5-0.9,1-1.3,1.6
		c-0.1,0.1-0.2,0.2-0.3,0.4c-0.2,0.2-0.4,0.5-0.5,0.8c-0.3,0.4-0.4,0.9-0.2,1.4c0.2,0.6,0.7,1.1,1.3,1.2c0.8,0.2,1.7-0.2,2.1-0.9
		c0.3-0.4,0.5-0.6,0.7-0.8l2.5-3c1.2-1.4,2.4-2.8,3.5-4.1c0.5-0.6,0.9-1.1,1.4-1.7c0,1.1,0,2.2,0.1,3.3c0.2,1.7,0.3,3.5,0.5,5.2
		c-0.8-0.1-1.6-0.1-2.4,0c-1.9,0.2-3.8,0.8-5.5,1.8c-1.6,1-3,2.2-4,3.7c-0.5,0.7-1,1.5-1.3,2.3c-0.3,0.8-0.6,1.7-0.7,2.6
		c-0.1,0.9-0.1,1.8,0.1,2.7c0.2,0.9,0.7,1.8,1.3,2.5c1,1.1,2.4,2,3.8,2.4c1,0.3,2,0.5,3.1,0.5c0.5,0,1.1,0,1.6-0.1
		c1.8-0.3,3.4-1,4.9-2c1.4-1,2.6-2.2,3.7-3.5c1-1.3,1.9-2.7,2.5-4.2c0.6-1.4,1.1-3,1.4-4.5c0.3-1.5,0.5-3.1,0.5-4.6
		C384.1,49.8,384,48.3,383.8,46.9z M368.2,66.1L368.2,66.1c-0.8,0-1.5-0.2-2.2-0.5c-0.7-0.3-1.2-0.9-1.3-1.6c-0.2-0.6-0.2-1.2,0-1.8
		c0.2-0.7,0.4-1.4,0.8-2c0.4-0.7,0.8-1.3,1.4-1.9c0.5-0.6,1.1-1.1,1.8-1.5c1.1-0.8,2.4-1.3,3.7-1.5c0.5-0.1,1-0.1,1.4-0.1
		c0.5,0,1.1,0.1,1.6,0.2c0,0.8-0.1,1.6-0.3,2.4c-0.3,1.2-0.6,2.3-1.1,3.4c-0.2,0.6-0.5,1.2-0.9,1.8c-0.3,0.6-0.7,1.1-1.2,1.6
		c-0.4,0.5-0.9,0.8-1.5,1.2c-0.5,0.3-1.1,0.4-1.7,0.4C368.4,66.1,368.3,66.1,368.2,66.1L368.2,66.1z"/>
	<polygon class="st0" points="63,95.2 69.7,95.2 51.6,135.8 32.6,95.2 39.4,95.2 39.4,91.5 0,91.5 0,95.2 7.2,95.2 38.4,161.6 
		38.9,162.7 43.6,162.7 73.6,95.2 81.6,95.2 81.6,91.5 63,91.5 	"/>
	<polygon class="st0" points="89.5,95.2 99.9,95.2 99.9,159 89.5,159 89.5,162.7 133.7,162.7 133.7,159 123,159 123,95.2 
		133.7,95.2 133.7,91.5 89.5,91.5 	"/>
	<polygon class="st0" points="195.9,95.2 201.7,95.2 201.7,153.4 171.6,92.5 171.6,91.5 169.6,91.5 169.3,90.9 169.3,91.5 
		141.9,91.5 141.9,95.2 148.5,95.2 148.5,159 141.9,159 141.9,162.7 178,162.7 178,159 171.6,159 171.6,100.8 202.3,162.7 
		203.8,162.7 204.1,163.3 204.1,162.7 205.4,162.7 205.4,95.2 211.4,95.2 211.4,91.5 195.9,91.5 	"/>
	<polygon class="st0" points="219.4,104.7 223,104.7 223,95.2 234.5,95.2 234.5,159 228,159 228,162.7 264.1,162.7 264.1,159 
		257.6,159 257.6,95.2 269.6,95.2 269.6,104.7 273.3,104.7 273.3,91.5 219.4,91.5 	"/>
	<path class="st0" d="M323.6,91.5h-1.4l-0.1-0.4l-0.1,0.4h-30.4v3.7h7.3L281.3,159h-5.7v3.7H311V159h-5.3L314,129h19.4l11,30.1h-3.2
		v3.7h11.2V159h-4L323.6,91.5z M315,125.3l7.4-26.6l9.7,26.6H315z"/>
	<path class="st0" d="M403.5,132.3h12.7c-2.3,15.3-14.8,26.7-29.4,26.7h-1V95.2c0.3,0,0.7,0,1,0c8.7,0,15.9,3.5,22.7,11l2,2.2v-14
		h-3.7v4.9c-5.8-5-13.3-7.8-21-7.8c-18.4,0-33.5,16-33.5,35.6c0,18.2,12.8,33.5,29.8,35.4h0.1c0.6,0,1.1,0,1.7,0.1
		c0.6,0,1.2,0.1,1.9,0.1c12.8,0,24.1-7.5,29.7-19.1v10.8h3.7v-25.8h-16.7V132.3z"/>
	<polygon class="st0" points="480,103.1 480,91.5 422.1,91.5 422.1,95.2 430.3,95.2 430.3,159 422.1,159 422.1,162.7 480,162.7 
		480,150.6 476.3,150.6 476.3,159 453.4,159 453.4,129 464.7,129 464.7,125.3 453.4,125.3 453.4,95.2 476.3,95.2 476.3,103.1 	"/>
	<path class="st0" d="M169,200.7h-7.8v-2.3h7c0.2,0,0.4-0.2,0.4-0.4v-3c0-0.2-0.2-0.4-0.4-0.4h-7v-2.1h7.5c0.2,0,0.4-0.2,0.4-0.4
		v-3.1c0-0.2-0.2-0.4-0.4-0.4h-11.2c-0.2,0-0.4,0.2-0.4,0.4v15.1c0,0.2,0.2,0.4,0.4,0.4H169c0.2,0,0.4-0.2,0.4-0.4v-3.1
		C169.4,200.9,169.2,200.7,169,200.7C169,200.7,169,200.7,169,200.7z"/>
	<path class="st0" d="M194.5,188.7h-3.8c-0.1,0-0.2,0.1-0.3,0.2l-4.1,5.4l-4.1-5.4c-0.1-0.1-0.2-0.2-0.3-0.2H178
		c-0.2,0-0.4,0.2-0.4,0.4v15.1c0,0.2,0.2,0.4,0.4,0.4h3.4c0.2,0,0.4-0.2,0.4-0.4v-9.4l3.8,5c0.1,0.1,0.2,0.1,0.3,0.1h0.6
		c0.1,0,0.2,0,0.3-0.1l4-5v9.4c0,0.2,0.2,0.4,0.4,0.4h3.4c0.2,0,0.4-0.2,0.4-0.4v-15.1C194.9,188.9,194.7,188.7,194.5,188.7
		C194.5,188.7,194.5,188.7,194.5,188.7z"/>
	<path class="st0" d="M211.2,188.7h-7.1c-0.2,0-0.4,0.2-0.4,0.4v15.1c0,0.2,0.2,0.4,0.4,0.4h3.4c0.2,0,0.4-0.2,0.4-0.4v-3.8h3.4
		c3.7,0,6.1-2.3,6.1-5.8C217.4,191.6,215.5,188.7,211.2,188.7z M207.9,192.7h3.4c1-0.1,1.9,0.6,2,1.6c0,0.1,0,0.2,0,0.3
		c0,1-0.7,1.8-1.7,1.9c-0.1,0-0.2,0-0.3,0h-3.4V192.7z"/>
	<path class="st0" d="M232.9,188.3c-5.2,0-8.5,3.3-8.5,8.3c0,5,3.3,8.3,8.5,8.3s8.5-3.3,8.5-8.3
		C241.4,191.6,238.1,188.3,232.9,188.3z M232.9,201.1c-2.4,0.1-4.4-1.7-4.5-4.1c0-0.1,0-0.3,0-0.4c-0.1-2.4,1.8-4.4,4.2-4.5
		c0.1,0,0.2,0,0.3,0c2.5,0,4.5,2,4.5,4.5C237.4,199.1,235.4,201.1,232.9,201.1z"/>
	<path class="st0" d="M259.7,199.1c2.1-0.7,3.4-2.7,3.2-4.9c0-2.6-1.9-5.5-6-5.5h-7.1c-0.2,0-0.4,0.2-0.4,0.4v15.1
		c0,0.2,0.2,0.4,0.4,0.4h3.4c0.2,0,0.4-0.2,0.4-0.4v-4.6h1.9l3.7,4.8c0.1,0.1,0.2,0.2,0.3,0.2h3.7c0.2,0,0.4-0.2,0.4-0.4v-0.3
		c0-0.1,0-0.2-0.1-0.2L259.7,199.1z M253.6,192.4h3.4c1,0,1.8,0.8,1.9,1.8c0,0,0,0.1,0,0.1c0,0.9-0.7,1.7-1.7,1.7c0,0-0.1,0-0.1,0
		h-3.5V192.4z"/>
	<path class="st0" d="M271.6,188.7h3.3c0.2,0,0.4,0.2,0.4,0.4v15.1c0,0.2-0.2,0.4-0.4,0.4h-3.3c-0.2,0-0.4-0.2-0.4-0.4v-15.1
		C271.3,188.9,271.4,188.7,271.6,188.7z"/>
	<path class="st0" d="M298.1,188.7h-3.3c-0.2,0-0.4,0.2-0.4,0.4v8.4c0,2.3-0.9,3.5-2.7,3.6c-2.3,0.1-3.6-1.2-3.6-3.6v-8.4
		c0-0.2-0.2-0.4-0.4-0.4h-3.3c-0.2,0-0.4,0.2-0.4,0.4v8.4c0,4.5,2.9,7.4,7.3,7.4h0.3c4.3-0.1,6.8-2.8,6.8-7.4v-8.4
		C298.5,188.9,298.3,188.7,298.1,188.7z"/>
	<path class="st0" d="M324.1,188.7h-3.8c-0.1,0-0.2,0.1-0.3,0.2l-4.1,5.4l-4.1-5.4c-0.1-0.1-0.2-0.2-0.3-0.2h-3.8
		c-0.2,0-0.4,0.2-0.4,0.4v15.1c0,0.2,0.2,0.4,0.4,0.4h3.4c0.2,0,0.4-0.2,0.4-0.4v-9.4l3.8,5c0.1,0.1,0.2,0.1,0.3,0.1h0.6
		c0.1,0,0.2,0,0.3-0.1l4-5v9.4c0,0.2,0.2,0.4,0.4,0.4h3.4c0.2,0,0.4-0.2,0.4-0.4v-15.1C324.4,188.9,324.3,188.7,324.1,188.7
		L324.1,188.7z"/>
	<rect x="1.6" y="194.5" class="st0" width="113.4" height="4.6"/>
	<rect x="366.5" y="194.5" class="st0" width="113.4" height="4.6"/>
</g>
</svg>
